#!OML:ASF E:\acrobat2\Project_11_07_03\Capture day 1\Session 1\Acrobat.ASF
:FULLY-SPECIFIED
:DEGREES
684
root 1.06245 17.9386 28.1975 362.373 -84.1679 5.90678
lowerback -6.03492 0.626106 -1.14074
upperback -4.40947 0.754801 -2.09636
thorax -1.14489 0.322484 -1.47705
lowerneck -3.11215 -2.72645 0.145092
upperneck 2.89019 -3.79839 3.63283
head 1.49508 -1.8366 1.02127
rclavicle -9.44227e-016 -3.97569e-015
rhumerus -17.1552 -45.682 2.26944
rradius 20.4838
rwrist 18.0381
rhand -15.5343 -48.8961
rfingers 7.12502
rthumb 10.6494 -438.606
lclavicle -9.44227e-016 -3.97569e-015
lhumerus 1.00013 12.2765 -0.281855
lradius 22.795
lwrist 15.7718
lhand -15.0867 -7.51677
lfingers 7.12502
lthumb 11.0811 22.1707
rfemur 12.7074 27.231 13.0411
rtibia -6.2023
rfoot -48.1564 -34.6703
rtoes 23.3642
lfemur 7.97275 -12.6801 -7.95274
ltibia -5.11098
lfoot -30.3982 4.48536
ltoes 45.5937
685
root 1.05855 17.9408 28.202 363.407 -84.1773 4.96319
lowerback -6.14972 0.677155 -0.959733
upperback -4.38207 0.818876 -2.09184
thorax -1.04903 0.351118 -1.56931
lowerneck -3.21744 -2.77102 0.159372
upperneck 2.88773 -3.85836 3.60444
head 1.51278 -1.86567 1.0072
rclavicle -2.5842e-015 3.49861e-014
rhumerus -17.371 -45.5739 2.4802
rradius 20.4934
rwrist 17.8503
rhand -15.5452 -48.8054
rfingers 7.12502
rthumb 10.6389 -438.516
lclavicle -2.5842e-015 3.49861e-014
lhumerus 1.12094 12.1804 -0.254492
lradius 22.7739
lwrist 16.0476
lhand -15.1763 -7.4887
lfingers 7.12502
lthumb 10.9947 22.2034
rfemur 12.6738 27.6434 13.2298
rtibia -6.20423
rfoot -48.6277 -34.9577
rtoes 23.2852
lfemur 7.86006 -12.5271 -7.76679
ltibia -5.0849
lfoot -30.2609 4.39222
ltoes 45.6821
686
root 1.05469 17.944 28.2087 363.916 -84.2411 4.52199
lowerback -6.22423 0.691412 -0.835099
upperback -4.38222 0.833652 -2.07593
thorax -1.00585 0.356067 -1.62131
lowerneck -3.25172 -2.74873 0.20039
upperneck 2.89647 -3.82868 3.54759
head 1.51855 -1.85083 0.982632
rclavicle -2.98177e-016 -7.95139e-016
rhumerus -17.3324 -45.6847 2.50129
rradius 20.4301
rwrist 17.9496
rhand -15.3983 -48.602
rfingers 7.12502
rthumb 10.7806 -438.305
lclavicle -2.98177e-016 -7.95139e-016
lhumerus 1.17633 12.5735 -0.157765
lradius 22.6377
lwrist 15.6611
lhand -15.1346 -7.61491
lfingers 7.12502
lthumb 11.0349 22.075
rfemur 12.5832 27.8424 13.2617
rtibia -6.15106
rfoot -48.7444 -35.1481
rtoes 23.007
lfemur 7.78911 -12.4321 -7.71084
ltibia -5.02642
lfoot -30.2599 4.33111
ltoes 45.7625
687
root 1.05103 17.9449 28.2142 362.745 -84.3434 5.69752
lowerback -6.22785 0.690879 -0.91931
upperback -4.3775 0.836929 -2.06798
thorax -1.0003 0.359518 -1.56561
lowerneck -3.13914 -2.66536 -0.0354069
upperneck 2.83199 -3.71218 3.77474
head 1.48746 -1.79347 1.09863
rclavicle -8.99501e-015 -7.95139e-015
rhumerus -17.1697 -45.8587 2.44022
rradius 20.3729
rwrist 18.1725
rhand -15.0389 -48.4715
rfingers 7.12502
rthumb 11.1272 -438.157
lclavicle -8.99501e-015 -7.95139e-015
lhumerus 1.13846 13.0729 -0.0312268
lradius 22.5554
lwrist 15.246
lhand -15.0561 -7.66967
lfingers 7.12502
lthumb 11.1106 22.0162
rfemur 12.5414 27.833 13.0695
rtibia -6.12007
rfoot -48.4492 -35.315
rtoes 22.4264
lfemur 7.83118 -12.3853 -7.88334
ltibia -4.99979
lfoot -30.2551 4.31949
ltoes 45.8337
688
root 1.04791 17.9437 28.2165 362.745 -84.414 5.67943
lowerback -6.21803 0.67098 -0.915985
upperback -4.35749 0.811645 -2.03635
thorax -0.985932 0.34768 -1.53617
lowerneck -2.94299 -2.56447 -0.248863
upperneck 2.65873 -3.56893 4.00518
head 1.40564 -1.72505 1.21385
rclavicle -1.51325e-014 -1.59028e-015
rhumerus -16.8383 -43.8233 1.95342
rradius 20.4636
rwrist 16.1479
rhand -14.9581 -48.8061
rfingers 7.12502
rthumb 11.2052 -438.487
lclavicle -1.51325e-014 -1.59028e-015
lhumerus 1.07523 13.8089 0.0960613
lradius 22.4934
lwrist 14.6338
lhand -14.9807 -7.76867
lfingers 7.12502
lthumb 11.1834 21.9133
rfemur 12.5188 27.8297 13.0633
rtibia -6.0586
rfoot -48.1669 -35.4922
rtoes 21.9429
lfemur 7.90051 -12.3642 -7.88252
ltibia -5.03648
lfoot -30.2427 4.41968
ltoes 45.6655
689
root 1.04538 17.9433 28.2184 363.603 -84.4111 4.80919
lowerback -6.17118 0.652416 -0.827816
upperback -4.36488 0.782671 -1.99033
thorax -1.01938 0.332282 -1.5403
lowerneck -2.83598 -2.51797 -0.330052
upperneck 2.57444 -3.50074 4.04909
head 1.3615 -1.6934 1.24449
rclavicle -1.93567e-014 1.82882e-014
rhumerus -16.5896 -36.5833 0.951376
rradius 21.0712
rwrist 8.9082
rhand -15.5603 -49.8976
rfingers 7.12502
rthumb 10.6244 -439.609
lclavicle -1.93567e-014 1.82882e-014
lhumerus 1.04502 14.0689 0.156277
lradius 22.469
lwrist 14.3589
lhand -14.8634 -7.75607
lfingers 7.12502
lthumb 11.2965 21.9197
rfemur 12.5235 27.9347 13.1998
rtibia -6.01856
rfoot -48.1022 -35.7709
rtoes 21.3564
lfemur 7.90971 -12.3087 -7.75176
ltibia -5.03969
lfoot -30.1778 4.43466
ltoes 45.5891
690
root 1.04312 17.9438 28.2234 362.677 -84.4184 5.78787
lowerback -6.18448 0.656334 -0.886159
upperback -4.38517 0.78913 -2.00767
thorax -1.0335 0.335947 -1.52512
lowerneck -2.75221 -2.50092 -0.301427
upperneck 2.45849 -3.47296 4.02241
head 1.30813 -1.68211 1.23283
rclavicle -3.42904e-014 1.03368e-014
rhumerus -16.5671 -37.8772 1.14063
rradius 20.8572
rwrist 10.2269
rhand -15.6633 -49.7893
rfingers 7.12502
rthumb 10.525 -439.506
lclavicle -3.42904e-014 1.03368e-014
lhumerus 1.07221 13.6695 0.112911
lradius 22.4559
lwrist 14.7614
lhand -14.855 -7.66799
lfingers 7.12502
lthumb 11.3046 22.0074
rfemur 12.4407 27.8998 13.0075
rtibia -6.03785
rfoot -47.8739 -35.9999
rtoes 20.6171
lfemur 7.85891 -12.3377 -7.85626
ltibia -5.02879
lfoot -30.2343 4.5254
ltoes 45.3868
691
root 1.03982 17.9456 28.2297 362.014 -84.4544 6.4959
lowerback -6.213 0.684078 -0.8997
upperback -4.39825 0.826137 -2.01917
thorax -1.03053 0.354231 -1.52725
lowerneck -2.60857 -2.50529 -0.306676
upperneck 2.28476 -3.47071 4.02091
head 1.22822 -1.68494 1.23515
rclavicle 8.92046e-015 -1.27222e-014
rhumerus -16.6343 -38.5909 1.31972
rradius 20.8012
rwrist 10.9657
rhand -15.6146 -49.7492
rfingers 7.12502
rthumb 10.572 -439.463
lclavicle 8.92046e-015 -1.27222e-014
lhumerus 1.0004 12.8338 -0.00649318
lradius 22.6079
lwrist 15.6479
lhand -14.9865 -7.58471
lfingers 7.12502
lthumb 11.1777 22.0975
rfemur 12.329 27.747 12.8009
rtibia -6.0489
rfoot -47.0166 -36.7391
rtoes 18.1078
lfemur 7.85187 -12.3952 -7.96513
ltibia -5.04888
lfoot -30.3238 4.55755
ltoes 45.359
692
root 1.03672 17.9472 28.2342 361.778 -84.5009 6.74482
lowerback -6.19363 0.71257 -0.90153
upperback -4.4053 0.863586 -2.01627
thorax -1.04785 0.373047 -1.52157
lowerneck -2.51417 -2.53717 -0.315874
upperneck 2.14373 -3.50631 4.0082
head 1.16809 -1.70581 1.23334
rclavicle 1.33683e-014 -1.03368e-014
rhumerus -16.7275 -39.9316 1.59159
rradius 20.6567
rwrist 12.286
rhand -15.3769 -49.4573
rfingers 7.12502
rthumb 10.8012 -439.16
lclavicle 1.33683e-014 -1.03368e-014
lhumerus 0.931106 12.6207 -0.00444085
lradius 22.7456
lwrist 15.9054
lhand -15.036 -7.60418
lfingers 7.12502
lthumb 11.13 22.0807
rfemur 12.263 27.6326 12.6919
rtibia -6.04588
rfoot -45.5405 -38.2711
rtoes 12.6946
lfemur 7.85243 -12.3117 -8.00498
ltibia -5.02272
lfoot -30.2764 4.39625
ltoes 45.6852
